<?xml version="1.0" encoding="utf-8"?>
<!-- Generator: Adobe Illustrator 22.0.1, SVG Export Plug-In . SVG Version: 6.00 Build 0)  -->
<svg version="1.1" id="Layer_1" xmlns="http://www.w3.org/2000/svg" xmlns:xlink="http://www.w3.org/1999/xlink" x="0px" y="0px"
	 viewBox="0 0 51.2 51.1" style="enable-background:new 0 0 51.2 51.1;" xml:space="preserve">
<style type="text/css">
	.st0{clip-path:url(#SVGID_2_);}
	.st1{fill:url(#SVGID_3_);}
	.st2{clip-path:url(#SVGID_5_);}
	.st3{fill:url(#SVGID_6_);}
	.st4{clip-path:url(#SVGID_8_);}
	.st5{fill:url(#SVGID_9_);}
	.st6{clip-path:url(#SVGID_11_);}
	.st7{fill:#F8F6E7;}
</style>
<title>brring-logo</title>
<g>
	<defs>
		<path id="SVGID_1_" d="M35.2,35.2c-4.4,4.4-10.7,6.6-16.9,5.9c4,8.6,14.2,12.4,22.8,8.4s12.4-14.2,8.4-22.8
			c-1.7-3.7-4.7-6.7-8.4-8.4C41.8,24.5,39.7,30.8,35.2,35.2"/>
	</defs>
	<clipPath id="SVGID_2_">
		<use xlink:href="#SVGID_1_"  style="overflow:visible;"/>
	</clipPath>
	<g class="st0">
		
			<linearGradient id="SVGID_3_" gradientUnits="userSpaceOnUse" x1="-554.5402" y1="466.5005" x2="-553.5402" y2="466.5005" gradientTransform="matrix(24.3174 -24.3174 -24.3174 -24.3174 24852.4336 -2093.1934)">
			<stop  offset="0" style="stop-color:#DB506C"/>
			<stop  offset="1" style="stop-color:#EA8D9F"/>
		</linearGradient>
		<polygon class="st1" points="1.1,35.5 35.5,1.1 70,35.5 35.5,70 		"/>
	</g>
</g>
<g>
	<defs>
		<path id="SVGID_4_" d="M6,6c-8.1,8-8.1,21.1-0.1,29.1c3.3,3.3,7.7,5.5,12.4,6c-4-8.6-0.3-18.8,8.3-22.8c4.6-2.1,9.9-2.1,14.5,0
			C39.9,7,29.7-1.2,18.4,0.1C13.7,0.6,9.3,2.7,6,6"/>
	</defs>
	<clipPath id="SVGID_5_">
		<use xlink:href="#SVGID_4_"  style="overflow:visible;"/>
	</clipPath>
	<g class="st2">
		
			<linearGradient id="SVGID_6_" gradientUnits="userSpaceOnUse" x1="-574.759" y1="481.4861" x2="-573.759" y2="481.4861" gradientTransform="matrix(-18.605 -32.2248 -32.2248 18.605 4850.5469 -27444.1074)">
			<stop  offset="0" style="stop-color:#F66675"/>
			<stop  offset="0" style="stop-color:#F66675"/>
			<stop  offset="1" style="stop-color:#FCC48D"/>
		</linearGradient>
		<polygon class="st3" points="-19.8,10.3 30.3,-18.7 58.9,30.8 8.8,59.8 		"/>
	</g>
</g>
<g>
	<defs>
		<path id="SVGID_7_" d="M21.7,21.7c-5.1,5.1-6.5,12.8-3.4,19.4c11.3,1.3,21.5-6.8,22.8-18.1c0.2-1.6,0.2-3.1,0-4.7
			c-2.3-1-4.7-1.6-7.2-1.6C29.3,16.7,25,18.5,21.7,21.7"/>
	</defs>
	<clipPath id="SVGID_8_">
		<use xlink:href="#SVGID_7_"  style="overflow:visible;"/>
	</clipPath>
	<g class="st4">
		
			<linearGradient id="SVGID_9_" gradientUnits="userSpaceOnUse" x1="-575.7717" y1="465.2469" x2="-574.7717" y2="465.2469" gradientTransform="matrix(1.502029e-15 -24.53 -24.53 -1.502029e-15 11441.0801 -14082.4404)">
			<stop  offset="0" style="stop-color:#4C3D69"/>
			<stop  offset="1" style="stop-color:#C73E67"/>
		</linearGradient>
		<rect x="15.4" y="16.7" class="st5" width="26.4" height="25.1"/>
	</g>
</g>
<g>
	<defs>
		<rect id="SVGID_10_" width="165.2" height="51.1"/>
	</defs>
	<clipPath id="SVGID_11_">
		<use xlink:href="#SVGID_10_"  style="overflow:visible;"/>
	</clipPath>
	<g class="st6">
		<path class="st7" d="M27.3,32.6c0-0.6,0.4-1,1-1s1,0.4,1,1s-0.4,1-1,1S27.3,33.1,27.3,32.6"/>
		<path class="st7" d="M31,32.6c0-0.6,0.4-1,1-1s1,0.4,1,1s-0.4,1-1,1S31,33.1,31,32.6"/>
		<path class="st7" d="M23.5,32.6c0-0.6,0.4-1,1-1s1,0.4,1,1s-0.4,1-1,1S23.5,33.1,23.5,32.6"/>
		<path class="st7" d="M32,27.5c0.6,0,1,0.4,1,1s-0.4,1-1,1s-1-0.4-1-1S31.4,27.5,32,27.5"/>
		<path class="st7" d="M28.3,27.5c0.6,0,1,0.4,1,1s-0.4,1-1,1s-1-0.4-1-1S27.7,27.5,28.3,27.5"/>
		<path class="st7" d="M24.5,27.5c0.6,0,1,0.4,1,1s-0.4,1-1,1s-1-0.4-1-1S24,27.5,24.5,27.5"/>
		<path class="st7" d="M32,23.5c0.6,0,1,0.4,1,1s-0.4,1-1,1s-1-0.4-1-1S31.4,23.5,32,23.5"/>
		<path class="st7" d="M28.3,23.5c0.6,0,1,0.4,1,1s-0.4,1-1,1s-1-0.4-1-1S27.7,23.5,28.3,23.5"/>
		<path class="st7" d="M24.5,23.5c0.6,0,1,0.4,1,1s-0.4,1-1,1s-1-0.4-1-1S24,23.5,24.5,23.5"/>
	</g>
</g>
</svg>
